 http://www.imdb.com/title/tt0938305/


Format : AVI
Format/Info : Audio Video Interleave
File size : 701 MiB
Duration : 1h 32mn
Overall bit rate : 1 054 Kbps
Writing library : VirtualDub build 32842/release

Video
ID : 0
Format : MPEG-4 Visual
Format profile : Advanced Simple@L5
Format settings, BVOP : 4
Format settings, QPel : No
Format settings, GMC : No warppoints
Format settings, Matrix : Default (H.263)
Muxing mode : Packed bitstream
Codec ID : XVID
Codec ID/Hint : XviD
Duration : 1h 32mn
Bit rate : 917 Kbps
Width : 640 pixels
Height : 336 pixels
Display aspect ratio : 1.905
Frame rate : 23.976 fps
Color space : YUV
Chroma subsampling : 4:2:0
Bit depth : 8 bits
Scan type : Progressive
Compression mode : Lossy
Bits/(Pixel*Frame) : 0.178
Stream size : 610 MiB (87%)
Writing library : XviD 64

Audio
ID : 1
Format : MPEG Audio
Format version : Version 1
Format profile : Layer 3
Codec ID : 55
Codec ID/Hint : MP3
Duration : 1h 32mn
Bit rate mode : Constant
Bit rate : 128 Kbps
Channel(s) : 2 channels
Sampling rate : 44.1 KHz
Compression mode : Lossy
Stream size : 85.1 MiB (12%)
Alignment : Split accross interleaves
Interleave, duration : 42 ms (1.00 video frame)
Interleave, preload duration : 500 ms
Writing library : LAME3.99r
Encoding settings : -m s -V 4 -q 3 -lowpass 17 -b 128


Plot
Set in 1974, a pair of '60s radicals rely on their bomb-making skills on their way to becoming capitalists.

 
http://www.shotpix.com/images/68660590981841582377.png 
http://www.shotpix.com/images/08477448416715055114.png 
http://www.shotpix.com/images/15621269309503714439.png 
http://www.shotpix.com/images/54604809565569674018.png